P3
50 50
255
0 0 0
0 0 0
0 0 0
0 0 0
0 0 0
0 0 0
0 0 0
0 0 0
0 0 0
0 0 0
0 0 0
0 0 0
0 0 0
0 0 0
0 0 0
0 0 0
0 0 0
0 0 0
0 0 0
0 0 0
0 0 0
0 0 0
0 0 0
0 0 0
0 0 0
0 0 0
0 0 0
0 0 0
0 0 0
0 0 0
0 0 0
0 0 0
0 0 0
0 0 0
0 0 0
0 0 0
0 0 0
0 0 0
0 0 0
0 0 0
0 0 0
0 0 0
0 0 0
0 0 0
0 0 0
0 0 0
0 0 0
0 0 0
0 0 0
0 0 0
0 0 0
5 10 6
0 0 0
14 19 11
0 0 0
0 0 0
25 49 28
0 0 0
0 0 0
15 4 4
0 0 0
32 26 10
26 14 8
0 0 0
40 11 11
0 0 0
17 17 17
5 5 5
17 8 5
0 0 0
69 69 69
67 67 67
0 0 0
0 0 0
0 0 0
0 0 0
143 140 139
119 123 119
61 51 32
19 38 22
16 16 16
122 122 122
65 18 18
0 0 0
60 60 60
22 6 6
4 4 4
66 66 66
68 68 68
19 19 19
3 0 0
89 19 19
99 99 99
0 0 0
9 2 2
20 11 6
39 11 11
69 19 19
29 15 8
0 0 0
0 0 0
19 68 23
8 9 5
55 20 20
65 66 65
5 2 1
176 176 176
61 60 60
19 18 18
7 7 7
8 2 2
31 56 34
1 1 1
0 0 0
17 17 17
81 67 67
94 89 88
0 0 0
26 49 29
96 96 96
3 0 0
16 61 20
0 0 0
16 4 4
30 59 34
147 95 74
34 47 27
49 46 28
0 0 0
187 29 26
33 9 9
6 3 1
107 29 29
51 14 14
0 0 0
81 60 60
2 4 2
12 0 0
41 11 11
97 26 26
73 73 73
38 60 35
80 22 22
16 16 16
74 70 70
105 29 29
35 9 9
10 2 2
22 6 6
0 0 0
0 0 0
17 33 19
35 67 39
20 23 13
2 0 0
29 42 24
35 69 40
64 18 17
0 0 0
0 0 0
26 51 29
0 0 0
68 72 69
25 50 28
17 16 16
7 4 2
120 121 120
30 8 8
174 174 174
18 10 5
74 83 75
0 1 0
0 0 0
0 1 0
75 26 21
114 114 114
58 58 58
23 19 19
163 26 26
14 5 5
56 58 35
131 138 131
10 5 3
0 0 0
1 0 0
0 0 0
69 20 19
31 24 22
112 56 56
23 6 6
43 20 11
118 56 55
28 18 18
134 49 49
71 60 60
0 0 0
8 2 2
24 3 3
32 8 8
0 0 0
0 0 0
19 37 21
16 32 18
15 31 17
13 23 13
0 0 0
61 32 23
68 83 48
7 13 7
4 1 1
16 7 4
100 16 16
0 0 0
69 69 69
157 43 43
26 47 27
21 21 21
67 66 66
14 1 1
18 19 18
27 52 30
119 106 106
28 54 31
61 60 60
5 1 1
106 105 105
53 25 24
12 12 12
104 103 103
40 59 42
35 5 3
82 82 82
8 5 4
0 0 0
98 98 98
96 26 26
17 9 6
14 14 14
47 13 13
52 21 21
58 17 17
89 89 89
4 1 1
106 111 106
184 77 75
22 16 16
23 6 6
30 13 9
38 9 9
0 0 0
0 0 0
23 79 28
25 48 28
20 25 12
11 21 12
23 44 25
73 78 73
42 100 48
3 6 4
16 14 8
7 9 5
29 8 8
12 24 13
30 58 33
29 50 29
87 76 44
1 2 1
0 0 0
83 6 6
50 14 14
19 37 21
0 0 0
19 5 5
29 32 29
67 67 67
109 30 30
59 59 59
74 71 62
0 0 0
55 55 55
108 30 30
116 115 115
65 65 65
23 44 25
0 0 0
111 30 30
61 17 17
86 24 24
0 0 0
81 91 81
58 58 58
115 31 31
48 12 12
0 0 0
101 7 7
47 9 9
37 11 10
53 18 15
54 20 15
0 0 0
0 0 0
2 2 0
21 41 24
73 141 81
45 70 32
20 62 23
0 0 0
29 99 35
75 75 75
34 69 38
2 8 2
110 98 87
63 51 51
21 31 20
61 61 61
43 62 39
162 162 162
175 171 171
0 0 0
56 56 56
255 255 255
255 255 255
255 255 255
255 255 255
255 255 255
255 255 255
255 255 255
255 255 255
255 255 255
255 255 255
71 20 19
14 14 13
48 79 46
0 0 0
116 76 76
0 0 0
29 54 31
72 69 69
0 0 0
89 24 24
47 47 47
47 17 14
26 12 7
56 15 15
32 9 9
78 21 21
87 20 20
47 13 13
3 1 1
0 0 0
0 0 0
15 29 16
21 41 23
28 52 30
34 66 38
20 40 22
9 19 10
92 94 92
84 96 85
16 31 18
48 101 53
16 7 7
28 10 10
91 151 88
105 105 105
61 101 59
80 80 80
29 56 32
68 83 69
108 30 30
102 88 88
255 255 255
255 255 255
255 255 255
255 255 255
255 255 255
255 255 255
255 255 255
255 255 255
255 255 255
78 93 80
96 96 96
69 63 63
53 27 16
8 4 2
108 113 108
108 29 29
79 78 78
100 52 52
59 40 40
97 27 27
115 57 35
61 20 17
45 12 12
64 21 18
35 13 9
57 16 15
31 8 8
51 14 14
0 0 0
0 0 0
34 92 39
28 54 31
27 53 31
48 93 53
29 56 32
20 36 21
26 51 29
36 19 11
36 37 36
24 24 24
132 143 133
42 22 13
82 62 62
135 140 136
70 121 76
129 136 129
55 55 54
44 86 49
38 60 39
255 255 255
255 255 255
255 255 255
255 255 255
255 255 255
255 255 255
255 255 255
255 255 255
255 255 255
15 4 4
183 166 166
36 63 39
117 109 109
176 157 157
105 79 79
21 20 20
36 52 30
3 12 4
39 39 39
30 15 8
0 0 0
28 7 7
34 9 9
60 16 16
55 15 15
37 11 10
0 0 0
33 9 9
122 19 19
0 0 0
0 0 0
71 139 80
41 38 22
29 57 33
53 49 28
50 82 47
27 52 30
42 69 33
16 24 13
26 32 20
83 99 85
47 66 49
103 114 104
28 43 29
86 84 84
123 123 123
90 90 90
36 36 36
47 77 50
149 100 100
137 145 138
169 166 161
15 4 4
130 130 130
82 27 24
0 0 0
131 37 36
83 35 29
105 92 92
94 75 75
101 101 101
117 117 117
78 82 41
130 130 130
0 0 0
10 10 10
0 0 0
46 25 14
86 24 24
22 6 6
60 16 16
70 19 19
87 18 18
71 25 20
86 25 23
79 22 22
97 25 25
61 17 17
74 22 20
0 0 0
0 0 0
24 58 27
10 15 9
39 76 44
31 61 35
41 81 46
48 92 53
30 57 33
26 53 29
38 75 43
17 63 21
114 115 114
0 0 0
49 49 49
64 64 64
73 39 39
0 0 0
143 151 144
28 28 27
48 48 48
35 30 30
61 59 59
7 11 7
114 8 8
0 0 0
61 62 61
89 89 89
62 23 23
169 45 37
0 0 0
81 51 51
67 84 67
76 23 22
117 86 86
0 0 0
150 82 82
63 17 17
134 37 37
35 10 10
135 82 82
39 11 11
117 32 32
149 26 26
56 12 12
120 33 33
14 3 3
88 24 24
83 23 23
62 18 17
0 0 0
0 0 0
35 69 40
34 66 38
54 105 60
30 59 34
50 98 56
53 87 50
51 124 59
72 139 80
9 14 5
23 34 18
22 34 24
36 56 39
50 50 50
43 56 44
41 44 37
52 49 49
34 33 33
59 38 37
30 30 30
107 107 107
71 52 45
81 70 56
42 34 32
62 112 68
68 53 33
79 93 80
27 27 27
91 37 37
60 34 26
22 22 22
15 29 17
79 36 36
111 98 98
27 24 24
75 33 33
24 24 24
90 35 35
49 29 24
77 17 17
25 6 6
57 14 14
89 24 24
167 36 36
125 36 34
84 23 23
109 30 30
73 20 20
72 25 20
0 0 0
0 0 0
27 54 31
29 74 34
19 38 21
31 60 34
40 78 45
79 153 88
65 125 72
28 54 31
43 82 47
45 65 38
47 50 47
38 86 42
75 75 75
54 74 57
51 51 51
74 88 76
74 74 74
86 109 88
114 114 114
59 74 60
68 67 67
123 124 123
89 112 89
118 111 111
0 0 0
64 64 64
46 43 43
117 97 97
103 101 101
102 69 69
49 45 45
88 65 64
61 61 61
59 42 42
78 51 51
134 59 59
33 28 27
21 21 21
134 38 37
128 27 27
83 23 23
96 26 22
126 35 35
154 42 42
71 23 19
106 34 29
74 20 20
60 16 16
0 0 0
0 0 0
24 47 27
35 51 29
28 55 31
23 46 26
65 127 73
52 54 31
48 93 53
45 85 49
33 78 38
37 59 34
42 47 42
70 70 70
50 51 50
111 114 111
57 77 59
39 39 39
59 60 59
175 175 175
106 106 106
132 132 132
118 130 119
91 91 91
91 69 69
65 53 50
155 120 118
193 193 193
92 92 92
105 69 69
119 119 119
46 45 45
123 133 124
72 72 72
248 82 82
58 58 58
55 83 56
44 44 44
78 60 60
31 31 31
42 11 11
40 11 11
99 17 17
138 38 38
79 21 21
91 25 25
98 27 27
82 26 23
66 25 19
66 17 17
0 0 0
0 0 0
30 58 33
45 141 54
24 46 26
40 78 45
47 105 53
44 87 50
49 26 15
64 125 72
26 51 29
45 48 27
131 134 131
38 38 38
165 103 103
191 196 192
81 98 83
64 64 64
102 61 61
123 143 125
79 79 78
135 142 98
0 0 0
60 60 60
50 50 50
86 57 56
99 95 94
129 129 129
148 148 148
232 232 232
107 56 56
126 126 126
107 117 108
130 95 95
79 73 73
84 84 84
106 74 74
117 83 82
96 46 43
214 214 214
62 17 17
63 16 16
109 30 30
118 35 32
117 32 32
121 33 33
109 29 29
7 1 0
83 23 23
55 15 15
0 0 0
0 0 0
19 31 18
33 64 37
25 49 28
40 77 44
54 106 61
37 66 37
56 102 59
30 59 34
45 45 25
24 47 27
83 89 83
72 97 74
87 94 88
103 86 66
128 132 125
170 180 170
109 109 109
126 97 95
128 161 130
81 81 81
114 114 114
104 93 93
53 103 59
6 5 5
87 103 89
128 114 114
135 135 135
140 93 93
123 123 123
176 133 133
149 148 148
45 45 45
134 95 95
64 64 64
69 68 68
50 17 17
95 65 65
91 59 59
76 21 21
85 23 23
156 43 43
249 69 69
146 40 40
97 26 26
137 38 38
55 15 15
8 4 2
103 24 24
0 0 0
0 0 0
36 19 11
40 78 45
42 82 47
46 76 44
58 113 65
50 97 56
51 98 56
48 93 53
65 90 52
26 49 28
146 147 146
96 110 97
69 79 63
68 68 68
77 77 77
124 124 124
125 125 125
33 65 37
136 177 133
117 129 112
79 101 81
154 168 155
67 80 69
159 49 49
74 92 74
72 81 73
170 170 170
157 141 141
135 131 123
150 150 150
164 154 154
115 113 113
80 80 80
91 103 92
111 82 81
41 41 41
56 56 56
95 84 84
110 27 27
76 21 21
139 24 24
72 20 20
125 34 34
221 33 33
101 28 28
93 25 25
114 31 31
79 23 22
0 0 0
0 0 0
17 33 19
36 69 40
40 77 44
54 80 46
43 76 44
30 55 31
71 133 76
44 83 48
43 84 49
86 167 96
61 61 61
69 78 70
75 75 75
45 45 45
53 63 54
102 122 104
91 91 91
106 117 107
170 175 170
114 122 101
70 85 71
84 30 30
183 183 183
51 99 57
138 108 108
110 110 110
140 148 141
249 100 100
153 153 153
156 140 140
98 98 98
125 125 125
167 144 144
121 56 56
120 119 103
88 107 90
116 84 84
107 107 107
97 29 27
136 34 34
150 43 41
145 40 40
116 32 31
134 38 37
114 32 31
73 20 20
93 25 25
72 20 20
0 0 0
0 0 0
25 50 29
38 74 42
24 45 26
8 9 3
43 84 48
53 121 60
34 62 35
56 110 63
59 139 67
76 148 85
30 72 34
92 122 94
225 227 225
188 200 189
69 82 70
137 137 137
112 123 113
110 110 110
160 159 145
126 97 79
102 93 91
172 172 172
142 109 109
123 90 90
135 135 135
84 84 84
164 152 152
88 90 88
148 148 148
108 100 100
104 91 91
117 117 117
104 30 29
160 147 147
132 96 96
118 92 90
83 83 83
103 72 71
83 23 23
77 21 21
148 39 37
62 18 17
114 31 31
62 22 17
63 17 17
133 22 22
91 25 25
57 16 16
0 0 0
0 0 0
16 32 18
35 68 39
31 58 33
38 74 42
50 94 54
59 114 66
62 112 65
40 79 45
23 45 26
49 89 51
95 135 99
96 109 97
124 130 124
107 96 96
39 62 40
83 103 80
62 61 61
183 183 183
108 139 111
90 128 94
123 123 123
148 115 115
85 96 86
178 139 139
98 71 71
170 161 160
138 138 138
171 171 171
119 101 99
124 124 124
182 194 183
143 143 143
55 54 54
98 98 98
96 96 96
104 86 86
57 57 57
43 42 42
109 30 30
70 18 18
139 38 38
147 43 41
176 29 28
111 34 31
116 32 32
101 27 27
64 18 17
92 25 25
0 0 0
0 0 0
33 64 37
32 43 24
40 79 45
26 49 28
70 137 79
63 115 66
31 72 35
59 78 45
35 69 40
47 91 52
122 122 122
101 73 63
110 111 110
169 169 169
117 117 117
163 103 82
98 113 99
139 134 123
134 124 118
156 156 156
153 153 153
184 176 176
121 121 121
105 105 105
102 84 84
132 132 132
167 157 157
126 126 126
115 129 115
131 130 130
119 97 97
90 90 90
60 60 60
106 105 105
53 45 45
111 96 96
145 64 64
102 100 100
132 56 56
84 23 23
152 26 26
147 40 40
158 37 37
91 25 25
89 24 24
84 30 24
81 22 22
58 13 13
0 0 0
0 0 0
33 65 37
56 55 31
60 63 36
48 94 54
53 103 59
52 96 55
42 81 47
48 93 53
61 119 68
84 164 94
40 40 40
99 117 101
99 115 101
152 212 157
85 84 84
57 108 64
38 10 10
95 95 95
73 73 73
107 89 89
110 89 73
82 105 84
122 119 119
119 119 119
158 173 160
133 119 109
92 92 92
70 66 66
121 121 121
128 128 128
172 120 120
165 79 67
95 95 95
74 72 72
24 37 26
164 85 85
113 103 103
82 69 69
87 26 26
90 25 25
113 28 26
105 29 29
84 23 23
113 17 17
81 27 22
92 25 25
62 15 15
82 12 12
0 0 0
0 0 0
6 7 4
23 44 25
39 77 44
44 76 44
44 86 49
39 77 44
62 120 69
45 88 50
37 71 41
34 67 38
113 125 114
61 91 64
110 100 100
15 58 19
22 43 25
34 21 12
19 38 22
71 71 71
109 108 108
74 73 73
64 64 64
45 42 42
132 135 131
95 92 92
115 70 70
118 32 32
164 122 122
63 60 60
96 108 97
135 133 133
86 86 86
98 94 94
84 85 84
60 60 60
118 118 118
123 123 123
98 88 88
56 15 15
115 28 27
113 31 31
114 36 32
81 22 22
80 26 22
105 29 29
98 27 27
88 26 24
108 29 29
50 14 14
0 0 0
0 0 0
19 37 21
44 86 49
40 79 45
26 51 29
20 11 6
41 75 43
43 90 49
66 129 74
27 51 29
29 90 35
21 42 23
63 63 63
79 79 79
74 74 74
33 64 37
0 0 0
29 28 28
64 73 54
119 104 74
46 46 46
24 23 22
16 13 13
103 103 103
46 47 46
116 59 59
65 65 65
138 138 138
114 114 114
106 70 70
109 67 67
96 95 95
59 56 56
85 85 85
149 116 116
60 53 53
117 82 82
130 39 39
88 88 88
154 46 46
84 23 23
123 34 34
99 27 27
121 33 33
84 23 23
76 21 21
88 28 25
78 22 21
90 24 24
0 0 0
0 0 0
6 12 7
35 74 39
50 98 56
40 68 39
56 86 50
50 97 56
46 83 47
41 91 47
43 84 48
59 115 66
97 105 98
83 83 83
103 132 106
56 64 57
54 99 57
64 64 64
65 67 65
131 94 94
55 57 55
24 18 18
0 1 0
21 41 23
32 32 32
62 19 18
122 111 108
173 140 140
125 115 114
155 111 111
192 106 106
106 86 86
117 85 85
124 100 100
100 100 100
129 126 126
126 108 108
107 85 78
83 81 81
105 65 65
142 39 39
155 30 30
118 35 33
155 43 43
118 32 32
92 25 25
117 36 32
90 25 25
67 18 18
69 19 19
0 0 0
0 0 0
32 60 34
40 68 39
51 99 57
24 60 27
41 80 46
28 79 32
47 92 53
24 43 24
38 75 42
21 37 20
103 121 105
77 98 79
109 109 109
41 80 46
34 57 20
69 64 63
42 42 42
90 71 70
58 50 50
61 84 63
54 49 49
56 61 50
76 21 21
49 52 50
74 74 74
151 141 141
179 171 171
96 97 78
122 122 122
114 77 77
134 84 84
125 126 125
90 90 90
94 94 94
182 182 182
30 27 27
115 85 85
106 70 70
41 39 39
118 26 22
128 35 35
108 25 25
131 36 36
102 28 28
60 18 16
85 25 23
57 15 15
63 19 17
0 0 0
0 0 0
36 69 39
47 91 52
32 62 35
34 64 36
33 63 36
32 48 27
43 85 49
40 78 45
26 68 30
34 66 38
44 44 44
78 89 79
109 109 109
30 58 33
32 62 35
33 26 26
81 81 81
63 63 63
76 76 76
89 89 89
35 35 35
52 49 49
99 98 97
61 61 61
16 16 16
110 110 110
129 127 127
137 136 136
138 138 138
121 121 121
140 108 108
58 55 55
105 105 105
119 119 119
91 86 76
149 138 138
76 68 67
95 91 91
137 56 56
103 24 24
106 30 29
146 44 40
60 15 15
22 2 1
121 33 33
60 24 15
55 13 10
72 19 19
0 0 0
0 0 0
44 74 43
34 56 32
20 39 22
21 42 24
39 75 43
39 89 44
42 81 47
40 103 46
49 95 54
61 89 61
80 80 80
53 68 55
59 69 60
40 72 44
77 77 77
20 23 20
68 67 67
30 17 17
67 67 67
63 23 23
43 43 43
33 33 33
49 49 49
63 31 25
89 89 89
82 60 60
136 119 119
116 116 116
100 84 84
151 117 117
124 92 92
144 101 101
115 102 97
56 60 56
95 106 96
73 73 73
92 65 65
155 151 149
44 12 12
105 29 29
97 26 26
139 29 29
96 26 26
116 32 32
149 41 41
71 19 19
92 25 25
41 11 11
0 0 0
0 0 0
20 35 20
91 169 98
42 56 32
40 77 44
48 66 38
53 103 60
34 65 37
42 83 47
31 61 35
41 77 44
98 104 98
72 72 72
64 47 43
74 98 77
61 102 59
74 72 72
70 70 70
58 58 58
4 1 1
99 72 72
72 44 43
151 150 150
68 68 68
62 62 62
32 32 32
100 112 100
145 139 139
79 79 79
141 129 129
133 112 112
118 118 118
88 58 58
69 69 69
103 103 103
87 70 70
138 85 85
84 70 70
74 74 74
88 24 24
121 33 33
111 30 30
117 27 27
132 36 36
109 30 30
89 24 24
83 23 23
69 19 19
100 32 28
0 0 0
0 0 0
27 52 30
19 38 22
5 2 1
86 168 96
40 47 27
45 79 45
41 80 46
42 97 48
31 60 35
25 67 29
87 87 87
104 97 97
78 78 78
0 0 0
3 2 1
22 22 22
36 36 36
37 32 32
221 217 217
62 62 62
15 4 4
32 32 32
7 7 7
39 39 39
81 81 81
23 1 1
73 73 73
91 79 79
114 86 85
71 71 71
123 79 79
103 85 85
62 59 55
80 29 29
118 103 103
83 68 68
99 76 76
85 23 23
94 26 26
83 24 23
91 20 20
86 23 23
65 18 18
92 28 25
66 17 17
93 25 25
85 23 23
81 22 22
0 0 0
0 0 0
24 47 27
22 35 20
0 0 0
50 48 28
32 56 30
39 76 43
23 44 25
8 31 10
51 100 58
42 82 47
67 100 70
63 63 63
66 66 66
47 63 48
35 35 35
68 17 17
32 32 32
44 36 36
37 37 37
37 27 27
89 39 39
72 26 26
0 0 0
37 37 37
79 53 51
154 154 154
128 81 81
106 106 106
132 95 95
87 87 87
93 57 57
46 46 46
111 86 86
91 71 67
66 66 66
119 112 112
181 82 82
130 71 71
75 20 20
104 23 23
117 31 31
97 26 26
83 24 23
88 24 24
84 23 23
94 27 26
124 34 34
96 26 26
0 0 0
0 0 0
29 57 33
28 51 29
21 39 22
44 82 47
49 99 55
24 46 26
46 99 52
44 86 49
2 10 3
36 60 34
0 0 0
0 0 0
43 46 43
54 71 56
59 93 61
117 39 39
65 32 32
52 39 39
64 43 43
34 34 34
72 68 68
50 32 32
50 50 50
46 46 46
68 68 68
87 87 87
114 102 102
87 72 72
71 71 71
89 70 70
138 124 124
67 65 65
64 64 64
82 64 64
137 59 59
82 72 66
131 86 86
70 43 43
118 32 32
111 30 30
102 28 22
87 24 24
85 23 23
98 27 27
77 21 21
38 10 10
94 26 26
82 24 23
0 0 0
0 0 0
38 74 43
44 84 48
38 74 43
49 110 56
22 41 23
30 58 33
21 41 23
31 59 33
19 36 21
23 45 26
79 98 81
39 41 39
44 50 45
17 66 22
18 35 20
30 26 10
75 75 75
77 77 77
50 37 37
56 35 35
41 37 37
35 33 33
45 40 40
85 86 85
32 32 32
123 60 60
69 69 69
65 62 62
104 104 104
88 88 88
146 130 130
93 67 67
105 67 67
84 71 71
113 98 98
133 118 111
117 110 110
85 85 85
107 29 29
111 30 30
102 28 28
90 24 24
131 27 27
114 34 31
107 25 23
95 30 26
56 15 15
59 16 16
0 0 0
0 0 0
4 2 1
37 71 41
32 62 35
43 94 44
35 67 39
37 69 39
50 96 55
28 55 32
20 39 23
0 1 0
52 53 52
3 6 3
48 64 50
24 6 6
60 58 58
66 17 17
33 37 33
26 24 24
54 44 44
67 67 67
60 41 41
38 10 10
55 37 37
51 63 52
77 74 74
58 58 58
109 90 90
122 122 122
145 134 134
255 255 255
133 109 109
65 60 60
86 64 64
91 91 91
84 70 70
121 100 100
75 75 75
54 54 54
92 25 25
125 34 34
75 20 20
83 23 23
93 26 26
80 20 20
77 21 21
91 25 25
90 25 24
57 15 15
0 0 0
0 0 0
33 63 36
26 47 27
54 100 58
6 24 8
38 55 32
22 39 22
19 38 22
15 59 19
19 66 23
37 60 35
94 94 94
16 15 15
4 8 4
20 5 5
25 26 25
25 25 25
8 8 8
51 35 35
65 35 35
34 27 26
30 30 30
46 33 33
20 5 5
76 24 24
27 51 29
32 32 32
0 0 0
182 24 24
59 22 16
114 110 110
162 108 108
58 57 57
22 12 12
117 68 68
93 93 93
66 66 66
96 88 88
87 53 53
57 15 15
149 42 41
117 14 14
56 13 13
101 28 28
73 25 20
86 21 21
82 22 22
78 19 16
10 2 2
0 0 0
0 0 0
45 88 50
29 51 29
26 49 28
17 34 19
36 77 39
23 61 26
10 20 11
6 46 8
45 92 51
26 52 29
37 37 37
94 152 101
3 7 4
28 54 31
21 21 21
22 16 16
24 8 8
42 10 10
90 85 85
76 47 47
44 47 31
89 86 86
64 17 17
47 41 41
94 107 93
141 86 86
138 138 138
84 84 84
135 102 102
118 81 81
78 78 78
130 105 105
80 66 61
104 87 87
142 110 110
126 35 35
83 83 83
122 48 48
70 38 38
57 4 4
36 14 8
99 27 27
48 22 13
70 18 18
45 12 12
42 11 11
49 13 13
121 33 33
0 0 0
0 0 0
22 44 25
32 71 34
27 49 28
33 61 35
20 35 20
18 36 20
10 39 13
1 2 0
30 60 34
57 111 64
14 55 18
7 7 7
11 20 12
52 56 34
37 64 38
38 28 28
110 113 108
62 33 33
64 19 19
41 29 29
39 25 24
82 31 31
95 87 83
49 26 26
50 12 12
145 97 97
102 102 102
56 56 56
148 149 148
97 74 74
205 205 205
111 74 74
105 103 102
122 111 104
0 0 0
117 97 97
107 107 107
48 48 48
33 9 9
67 19 18
143 34 34
71 19 19
45 13 12
29 8 4
85 23 23
59 16 16
50 18 14
28 10 6
0 0 0
0 0 0
16 32 18
44 51 29
38 61 35
34 67 38
33 62 36
45 79 42
5 3 1
0 0 0
0 0 0
2 7 2
0 0 0
9 18 10
31 21 17
0 0 0
76 72 72
50 21 21
86 86 86
28 10 10
74 30 30
46 34 29
25 9 9
58 53 47
74 24 24
82 75 75
109 66 64
101 28 28
35 35 35
102 93 93
57 55 55
24 1 1
38 42 37
79 79 79
39 39 38
66 66 66
102 33 33
63 63 63
48 48 48
75 61 61
60 17 16
90 25 25
101 28 28
108 30 30
69 19 17
82 23 22
13 3 3
82 22 22
64 18 17
65 18 18
0 0 0
0 0 0
30 58 34
22 42 24
61 46 27
40 74 43
39 50 29
36 69 39
16 62 20
5 13 3
28 15 8
0 0 0
28 23 22
121 121 121
0 0 0
54 54 54
78 95 80
28 41 29
80 71 70
90 100 88
107 88 88
31 21 21
45 38 38
25 25 25
108 108 108
25 25 25
79 22 22
79 50 50
60 60 60
71 63 63
82 82 82
93 25 25
74 74 74
109 109 109
68 68 68
99 99 99
64 76 55
80 50 34
73 20 20
140 60 60
119 21 21
95 23 23
80 22 22
114 29 28
109 30 30
66 20 17
72 19 19
62 20 17
44 15 12
29 12 8
0 0 0
0 0 0
21 40 23
51 54 31
32 56 32
35 68 39
44 85 49
31 58 33
1 2 0
0 8 0
0 0 0
1 0 0
0 0 0
59 60 59
55 55 55
85 162 91
165 47 47
66 66 66
69 66 66
78 78 78
48 30 30
34 26 26
112 112 112
39 21 21
45 25 21
111 111 111
110 30 30
61 61 61
76 76 76
74 74 74
79 79 79
79 56 56
117 115 102
120 75 75
101 92 89
95 77 77
110 92 92
72 71 71
131 124 124
87 78 78
70 46 46
77 21 21
108 30 30
82 23 22
41 12 11
69 20 19
143 22 21
0 0 0
68 19 19
71 19 19
0 0 0
0 0 0
22 30 17
27 51 29
36 67 39
28 53 30
36 68 39
43 84 48
8 11 4
35 68 39
0 0 0
1 2 0
0 0 0
0 0 0
128 50 50
12 6 4
24 1 1
45 52 39
30 29 29
28 14 14
90 79 79
111 107 107
107 81 81
99 79 79
23 23 23
61 54 54
89 26 24
107 33 30
70 71 70
54 54 54
121 121 121
101 47 47
165 100 100
88 88 88
74 74 74
109 109 109
100 99 99
91 25 25
59 59 59
99 99 99
68 55 55
102 28 28
35 9 9
54 14 14
82 21 17
66 18 18
84 23 23
79 22 22
48 15 12
62 17 17
0 0 0
0 0 0
36 33 19
53 103 59
37 55 28
25 45 26
41 79 45
19 57 20
8 11 6
0 0 0
3 1 0
33 65 37
28 55 32
5 10 5
0 5 0
0 0 0
36 28 28
16 13 12
39 33 28
42 20 20
6 1 1
107 194 113
90 80 80
55 27 27
70 68 68
45 25 25
58 21 21
79 22 22
88 81 81
69 60 60
144 144 144
63 63 63
84 84 84
65 65 65
101 69 69
88 88 88
30 59 34
118 104 103
108 108 108
167 116 116
84 54 54
113 108 108
83 75 75
78 17 17
39 12 11
68 20 19
56 19 15
77 21 21
63 17 17
61 16 16
0 0 0
0 0 0
25 47 27
41 80 46
29 57 32
30 58 34
25 55 27
7 6 2
16 29 17
21 40 23
10 5 3
0 0 0
34 67 38
56 56 56
6 12 7
0 0 0
33 45 34
27 25 25
20 16 16
85 85 75
42 74 46
55 21 21
102 78 78
7 6 6
144 140 140
70 65 65
77 68 68
83 66 66
93 62 62
81 71 71
0 0 0
64 33 33
71 48 48
93 93 93
126 126 126
43 11 11
94 60 57
97 97 97
116 89 89
140 140 140
90 79 79
106 76 76
85 63 62
137 133 133
55 17 15
78 23 21
90 23 23
102 27 27
72 19 19
61 17 17
0 0 0
0 0 0
22 58 23
9 4 2
36 67 39
37 70 40
37 71 41
17 17 5
103 109 103
54 61 54
58 53 53
61 60 59
94 94 94
19 4 4
72 101 75
124 123 123
70 67 65
71 90 73
92 101 93
114 109 109
113 109 109
134 130 129
98 90 90
121 114 114
117 123 115
45 59 35
98 98 98
64 64 64
8 2 2
68 47 47
94 94 94
110 109 109
124 109 109
124 74 74
75 56 56
80 73 70
22 43 25
1 3 1
119 69 67
14 26 15
117 67 66
96 73 66
111 111 111
101 92 91
80 78 76
85 19 14
83 14 12
68 19 19
35 9 9
85 26 23
0 0 0
0 0 0
13 26 15
26 48 27
28 55 32
34 64 37
53 63 54
57 57 57
22 21 21
119 102 100
84 97 85
103 103 103
85 89 84
84 82 82
88 102 87
120 120 120
86 85 84
29 8 8
106 106 106
60 61 60
94 89 89
85 76 76
118 129 114
121 125 116
94 88 88
64 65 64
19 5 5
40 13 10
77 21 21
55 15 15
83 31 31
50 50 50
173 171 171
255 255 255
255 255 255
60 25 20
160 162 160
42 12 12
6 5 3
46 15 12
58 112 64
82 91 83
134 127 127
67 58 54
68 54 51
90 71 61
72 20 20
85 19 19
97 26 26
63 17 17
0 0 0
0 0 0
16 41 19
25 46 26
43 28 16
53 62 53
91 90 90
38 66 38
72 69 69
76 76 75
43 82 48
110 109 109
67 65 65
117 117 117
83 79 79
126 116 116
96 94 94
113 81 81
104 104 104
73 96 74
99 97 97
110 108 107
109 106 106
108 107 107
103 85 85
98 88 73
81 58 58
86 61 61
37 10 10
22 6 6
40 11 11
15 4 4
90 34 34
55 52 52
176 176 176
114 66 66
161 158 158
56 56 56
5 3 1
47 40 37
40 11 11
78 79 78
42 42 42
96 96 96
85 85 85
102 88 88
72 71 71
81 22 22
56 15 15
55 15 15
0 0 0
0 0 0
22 42 24
26 39 22
74 80 74
104 117 87
74 53 53
83 108 85
78 84 79
97 106 97
55 53 53
81 90 82
88 89 80
132 146 114
58 54 54
58 56 56
64 63 60
102 96 96
55 45 25
80 80 80
59 59 59
117 134 115
124 121 121
115 102 102
164 162 162
112 112 106
104 78 67
90 82 82
106 93 93
18 9 5
107 107 107
111 68 68
81 51 51
105 107 106
34 40 25
49 48 47
81 34 34
51 25 25
41 20 15
54 15 15
90 81 81
92 92 92
138 131 131
55 55 55
53 53 53
68 5 5
92 92 92
101 84 84
61 17 15
55 15 15
0 0 0
0 0 0
26 51 29
31 56 32
83 92 83
72 71 71
90 100 91
86 56 56
107 119 108
129 145 130
116 73 66
2 4 2
95 95 95
88 116 91
86 75 75
77 76 75
133 131 131
100 95 95
63 113 65
41 40 40
108 108 108
140 96 96
169 179 164
84 84 84
81 81 81
64 63 63
79 83 79
124 124 124
131 139 132
11 5 3
114 123 109
70 70 70
119 79 79
67 66 66
93 93 93
85 55 55
51 46 45
103 103 103
91 113 94
93 93 93
80 67 67
50 6 6
82 70 70
75 51 51
7 7 7
97 97 97
90 105 91
159 99 97
56 47 47
3 0 0
0 0 0
0 0 0
13 47 15
98 105 99
48 55 48
66 65 65
81 79 79
71 71 71
69 67 67
53 51 51
85 89 85
49 48 48
78 70 70
77 82 77
99 99 99
39 2 2
77 75 75
54 51 51
56 50 50
19 5 5
57 55 55
0 0 0
109 95 95
71 53 53
89 89 89
122 122 122
79 79 79
78 78 78
98 98 98
58 54 54
100 30 30
116 103 103
109 109 109
84 77 77
60 60 60
50 49 49
84 82 79
58 52 52
82 31 26
50 54 50
107 107 107
117 99 99
66 18 18
63 63 63
80 80 80
72 72 72
64 64 64
48 46 46
93 83 83
57 50 50
0 0 0
0 0 0
0 0 0
0 0 0
0 0 0
0 0 0
0 0 0
0 0 0
0 0 0
0 0 0
0 0 0
0 0 0
0 0 0
0 0 0
0 0 0
0 0 0
0 0 0
0 0 0
0 0 0
0 0 0
0 0 0
0 0 0
0 0 0
0 0 0
0 0 0
0 0 0
0 0 0
0 0 0
0 0 0
0 0 0
0 0 0
0 0 0
0 0 0
0 0 0
0 0 0
0 0 0
0 0 0
0 0 0
0 0 0
0 0 0
0 0 0
0 0 0
0 0 0
0 0 0
0 0 0
0 0 0
0 0 0
0 0 0
0 0 0
0 0 0
0 0 0
